C:\Users\israe\Dropbox\PhDWork\ExperimentalData\subject14\055\P14S055W13_filtered35.mot
nRows=20
nColumns=28

name C:\Users\israe\Dropbox\PhDWork\ExperimentalData\subject14\055\P14S055W13_filtered35.mot
datacolumns 28
datarows 20
range 1.5950000000 1.6140000000
endheader
time	ground_force_1_vx	ground_force_1_vy	ground_force_1_vz	ground_force_1_px	ground_force_1_py	ground_force_1_pz	ground_moment_1_mx	ground_moment_1_my	ground_moment_1_mz	ground_force_2_vx	ground_force_2_vy	ground_force_2_vz	ground_force_2_px	ground_force_2_py	ground_force_2_pz	ground_moment_2_mx	ground_moment_2_my	ground_moment_2_mz	ground_force_3_vx	ground_force_3_vy	ground_force_3_vz	ground_force_3_px	ground_force_3_py	ground_force_3_pz	ground_moment_3_mx	ground_moment_3_my	ground_moment_3_mz
        1.5950000000	        2.0600490994	       93.4943760675	      -36.7354101550	        0.1988394955	        0.0000558755	       -0.3004071329	      -22.5984771794	        0.9787960067	        2.5319706938	       29.0736196044	      632.4533425142	      -57.4168213200	        0.2029003516	       -0.0000795827	        0.4543649445	       79.9607738312	      -11.2373626936	      -57.8832402614	       -0.0000000000	        0.0000000000	       -0.0000000000	        0.2076431971	        0.0000770316	        1.3583900146	       -0.0000000000	       -0.0000000000	        0.0000000000	
        1.5960000000	        2.6638468104	       99.2599294571	      -37.3145307964	        0.1988394955	        0.0000558755	       -0.3004071329	      -23.9927777471	        1.1290021706	        2.6782694432	       28.8184552782	      631.5503307490	      -57.8433621015	        0.2029003516	       -0.0000795827	        0.4543649445	       79.9627355684	      -11.2514751534	      -57.7697832675	       -0.0000000000	        0.0000000000	       -0.0000000000	        0.2076431971	        0.0000770316	        1.3583900146	       -0.0000000000	       -0.0000000000	        0.0000000000	
        1.5970000000	        3.2758095826	      104.6605011764	      -37.4884180189	        0.1988394955	        0.0000558755	       -0.3004071329	      -25.2968404572	        1.2731813021	        2.8096197383	       28.5672772070	      630.6153081236	      -58.2674127475	        0.2029003516	       -0.0000795827	        0.4543649445	       79.9607906491	      -11.2653433578	      -57.6520623833	       -0.0000000000	        0.0000000000	       -0.0000000000	        0.2076431971	        0.0000770316	        1.3583900146	       -0.0000000000	       -0.0000000000	        0.0000000000	
        1.5980000000	        3.8832740556	      109.6334591290	      -37.2485057722	        0.1988394955	        0.0000558755	       -0.3004071329	      -26.4941787200	        1.4079278364	        2.9241066957	       28.3195798889	      629.6517828016	      -58.6907957013	        0.2029003516	       -0.0000795827	        0.4543649445	       79.9541590192	      -11.2786075294	      -57.5295689646	       -0.0000000000	        0.0000000000	       -0.0000000000	        0.2076431971	        0.0000770316	        1.3583900146	       -0.0000000000	       -0.0000000000	        0.0000000000	
        1.5990000000	        4.4741188975	      114.1268511520	      -36.5962322408	        0.1988394955	        0.0000558755	       -0.3004071329	      -27.5704355737	        1.5303029087	        3.0202912567	       28.0741821972	      628.6617679481	      -59.1147142252	        0.2029003516	       -0.0000795827	        0.4543649445	       79.9417107376	      -11.2909333485	      -57.4021224472	       -0.0000000000	        0.0000000000	       -0.0000000000	        0.2076431971	        0.0000770316	        1.3583900146	       -0.0000000000	       -0.0000000000	        0.0000000000	
        1.6000000000	        5.0378517416	      118.1005681505	      -35.5430752626	        0.1988394955	        0.0000558755	       -0.3004071329	      -28.5144821611	        1.6382478085	        3.0970248959	       27.8288092783	      627.6434067367	      -59.5390113273	        0.2029003516	       -0.0000795827	        0.4543649445	       79.9225227288	      -11.3021233676	      -57.2697012024	       -0.0000000000	        0.0000000000	       -0.0000000000	        0.2076431971	        0.0000770316	        1.3583900146	       -0.0000000000	       -0.0000000000	        0.0000000000	
        1.6010000000	        5.5668339000	      121.5292264213	      -34.1103451008	        0.1988394955	        0.0000558755	       -0.3004071329	      -29.3195851702	        1.7305627349	        3.1536578245	       27.5810332990	      626.5909412170	      -59.9624926549	        0.2029003516	       -0.0000795827	        0.4543649445	       79.8964056046	      -11.3121594476	      -57.1321352925	       -0.0000000000	        0.0000000000	       -0.0000000000	        0.2076431971	        0.0000770316	        1.3583900146	        0.0000000000	       -0.0000000000	        0.0000000000	
        1.6020000000	        6.0572514810	      124.4044350965	      -32.3295967388	        0.1988394955	        0.0000558755	       -0.3004071329	      -29.9839420158	        1.8070549093	        3.1904143419	       27.3294637999	      625.4962656453	      -60.3842113131	        0.2029003516	       -0.0000795827	        0.4543649445	       79.8636995045	      -11.3211180136	      -56.9892460504	        0.0000000000	        0.0000000000	        0.0000000000	        0.2076431971	        0.0000770316	        1.3583900146	        0.0000000000	        0.0000000000	       -0.0000000000	
        1.6030000000	        6.5089262594	      126.7360772307	      -30.2424404750	        0.1988394955	        0.0000558755	       -0.3004071329	      -30.5104008840	        1.8685465986	        3.2084298084	       27.0735066357	      624.3513223962	      -60.8046856990	        0.2029003516	       -0.0000795827	        0.4543649445	       79.8247410704	      -11.3291259736	      -56.8411412754	        0.0000000000	        0.0000000000	        0.0000000000	        0.2076431971	        0.0000770316	        1.3583900146	        0.0000000000	        0.0000000000	       -0.0000000000	
        1.6040000000	        6.9242501905	      128.5521383643	      -27.8983500587	        0.1988394955	        0.0000558755	       -0.3004071329	      -30.9060767434	        1.9166294026	        3.2095022881	       26.8126695716	      623.1504857606	      -61.2257140228	        0.2029003516	       -0.0000795827	        0.4543649445	       79.7797535788	      -11.3364901862	      -56.6881463735	        0.0000000000	        0.0000000000	        0.0000000000	        0.2076431971	        0.0000770316	        1.3583900146	        0.0000000000	        0.0000000000	       -0.0000000000	
        1.6050000000	        7.3072929327	      129.8963869852	      -25.3511381670	        0.1988394955	        0.0000558755	       -0.3004071329	      -31.1821643334	        1.9534631865	        3.1959476316	       26.5465094779	      621.8911813117	      -61.6492672888	        0.2029003516	       -0.0000795827	        0.4543649445	       79.7290137797	      -11.3437439664	      -56.5305492196	        0.0000000000	        0.0000000000	        0.0000000000	        0.2076431971	        0.0000770316	        1.3583900146	        0.0000000000	        0.0000000000	       -0.0000000000	
        1.6060000000	        7.6628696505	      130.8264363490	      -22.6554920197	        0.1988394955	        0.0000558755	       -0.3004071329	      -31.3534933858	        1.9812751484	        3.1705712410	       26.2745132491	      620.5720012825	      -62.0768562472	        0.2029003516	       -0.0000795827	        0.4543649445	       79.6727012640	      -11.3514011919	      -56.3685505899	        0.0000000000	        0.0000000000	        0.0000000000	        0.2076431971	        0.0000770316	        1.3583900146	        0.0000000000	        0.0000000000	       -0.0000000000	
        1.6070000000	        7.9956706907	      131.4124512838	      -19.8641031460	        0.1988394955	        0.0000558755	       -0.3004071329	      -31.4377641051	        2.0020454246	        3.1365148879	       25.9958185921	      619.1898735943	      -62.5090433024	        0.2029003516	       -0.0000795827	        0.4543649445	       79.6105102172	      -11.3596442212	      -56.2022401252	        0.0000000000	        0.0000000000	        0.0000000000	        0.2076431971	        0.0000770316	        1.3583900146	        0.0000000000	        0.0000000000	       -0.0000000000	
        1.6080000000	        8.3103481815	      131.7342526684	      -17.0256974730	        0.1988394955	        0.0000558755	       -0.3004071329	      -31.4548729018	        2.0176291267	        3.0969399944	       25.7093179429	      617.7398886093	      -62.9450646232	        0.2029003516	       -0.0000795827	        0.4543649445	       79.5417267551	      -11.3682519550	      -56.0314213751	        0.0000000000	        0.0000000000	        0.0000000000	        0.2076431971	        0.0000770316	        1.3583900146	        0.0000000000	        0.0000000000	       -0.0000000000	
        1.6090000000	        8.6119567572	      131.8779558199	      -14.1840169009	        0.1988394955	        0.0000558755	       -0.3004071329	      -31.4262737072	        2.0297450139	        3.0548220721	       25.4136336279	      616.2180569951	      -63.3832611455	        0.2029003516	       -0.0000795827	        0.4543649445	       79.4658192002	      -11.3766932869	      -55.8556565663	        0.0000000000	        0.0000000000	        0.0000000000	        0.2076431971	        0.0000770316	        1.3583900146	        0.0000000000	        0.0000000000	       -0.0000000000	
        1.6100000000	        8.9058301776	      131.9345031526	      -11.3770197783	        0.1988394955	        0.0000558755	       -0.3004071329	      -31.3741972575	        2.0400420381	        3.0129903553	       25.1069149928	      614.6231761720	      -63.8218079009	        0.2029003516	       -0.0000795827	        0.4543649445	       79.3826659470	      -11.3842402375	      -55.6745915254	        0.0000000000	        0.0000000000	        0.0000000000	        0.2076431971	        0.0000770316	        1.3583900146	        0.0000000000	        0.0000000000	       -0.0000000000	
        1.6110000000	        9.1970221781	      131.9992133139	       -8.6364353905	        0.1988394955	        0.0000558755	       -0.3004071329	      -31.3209260722	        2.0501459466	        2.9741307764	       24.7874632518	      612.9565436381	      -64.2593379953	        0.2029003516	       -0.0000795827	        0.4543649445	       79.2922182848	      -11.3901036086	      -55.4881143145	        0.0000000000	        0.0000000000	        0.0000000000	        0.2076431971	        0.0000770316	        1.3583900146	        0.0000000000	        0.0000000000	       -0.0000000000	
        1.6120000000	        9.4895645039	      132.1686248917	       -5.9886105072	        0.1988394955	        0.0000558755	       -0.3004071329	      -31.2882533950	        2.0615281743	        2.9406739024	       24.4549035111	      611.2209337459	      -64.6952773928	        0.2029003516	       -0.0000795827	        0.4543649445	       79.1942861647	      -11.3935468135	      -55.2962505491	        0.0000000000	        0.0000000000	        0.0000000000	        0.2076431971	        0.0000770316	        1.3583900146	        0.0000000000	        0.0000000000	       -0.0000000000	
        1.6130000000	        9.7861240380	      132.5342205887	       -3.4555662545	        0.1988394955	        0.0000558755	       -0.3004071329	      -31.2970773060	        2.0755981073	        2.9147811272	       24.1104376312	      609.4197281911	      -65.1294427708	        0.2029003516	       -0.0000795827	        0.4543649445	       79.0887174930	      -11.3940424353	      -55.0991041840	        0.0000000000	        0.0000000000	        0.0000000000	        0.2076431971	        0.0000770316	        1.3583900146	        0.0000000000	        0.0000000000	       -0.0000000000	
        1.6140000000	       10.0886132598	      133.1774788605	       -1.0547335640	        0.1988394955	        0.0000558755	       -0.3004071329	      -31.3668937739	        2.0936805589	        2.8983511903	       23.7559199611	      607.5561860352	      -65.5615130531	        0.2029003516	       -0.0000795827	        0.4543649445	       78.9756204838	      -11.3914556653	      -54.8968675442	        0.0000000000	        0.0000000000	        0.0000000000	        0.2076431971	        0.0000770316	        1.3583900146	        0.0000000000	        0.0000000000	       -0.0000000000	
